# xmcd
#
# Track frame offsets:
#   150
#   25207
#   41075
#   60679
#   83386
#   110045
#   124288
#   146032
#   162463
#   171651
#   204199
#   220273
#   235314
#   257725
#   271975
#   291813
#
# Disc length: 4113 seconds
#
# Revision: 0
# Processed by: cddbd v1.5.2PL0 Copyright (c) Steve Scherf et al.
# Submitted via: uFREEDB ActiveX Control 1.5
#
DISCID=f4100f10
DTITLE=varius - varius
DYEAR=1900
DGENRE=Children's Music
TTITLE0=aaaa
TTITLE1=bbbbb
TTITLE2=1.1
TTITLE3=cccccccc
TTITLE4=2.2
TTITLE5=3.3
TTITLE6=4.4
TTITLE7=ggg
TTITLE8=hjhkb
TTITLE9=hhhh
TTITLE10=ghjjh
TTITLE11=fhjjjk
TTITLE12=fghjjj
TTITLE13=ghjkkkll
TTITLE14=hjjjj
TTITLE15=jllll
EXTD=
EXTT0=
EXTT1=
EXTT2=
EXTT3=
EXTT4=
EXTT5=
EXTT6=
EXTT7=
EXTT8=
EXTT9=
EXTT10=
EXTT11=
EXTT12=
EXTT13=
EXTT14=
EXTT15=
PLAYORDER=
